<svg width="16" height="16" viewBox="0 0 16 16" fill="none" xmlns="http://www.w3.org/2000/svg">
<path d="M8.8 9.6V7.2H6.4V5.6H8.8V3.2H10.4V5.6H12.8V7.2H10.4V9.6H8.8ZM1.6 16C1.16 16 0.783201 15.8432 0.469601 15.5296C0.156001 15.216 -0.000531975 14.8395 1.35823e-06 14.4V4.8C1.35823e-06 4.36 0.156801 3.9832 0.470401 3.6696C0.784001 3.356 1.16053 3.19947 1.6 3.2H3.2V1.6C3.2 1.16 3.3568 0.783201 3.6704 0.469601C3.984 0.156001 4.36053 -0.000531975 4.8 1.35823e-06H14.4C14.84 1.35823e-06 15.2168 0.156801 15.5304 0.470401C15.844 0.784001 16.0005 1.16053 16 1.6V11.2C16 11.64 15.8432 12.0168 15.5296 12.3304C15.216 12.644 14.8395 12.8005 14.4 12.8H12.8V14.4C12.8 14.84 12.6432 15.2168 12.3296 15.5304C12.016 15.844 11.6395 16.0005 11.2 16H1.6ZM4.8 11.2H14.4V1.6H4.8V11.2Z" fill="white"/>
</svg>
