<svg width="20" height="20" viewBox="0 0 20 20" fill="none" xmlns="http://www.w3.org/2000/svg">
<path d="M11 12V9H8V7H11V4H13V7H16V9H13V12H11ZM2 20C1.45 20 0.979002 19.804 0.587002 19.412C0.195002 19.02 -0.000664969 18.5493 1.69779e-06 18V6C1.69779e-06 5.45 0.196002 4.979 0.588002 4.587C0.980002 4.195 1.45067 3.99934 2 4H4V2C4 1.45 4.196 0.979002 4.588 0.587002C4.98 0.195002 5.45067 -0.000664969 6 1.69779e-06H18C18.55 1.69779e-06 19.021 0.196002 19.413 0.588002C19.805 0.980002 20.0007 1.45067 20 2V14C20 14.55 19.804 15.021 19.412 15.413C19.02 15.805 18.5493 16.0007 18 16H16V18C16 18.55 15.804 19.021 15.412 19.413C15.02 19.805 14.5493 20.0007 14 20H2ZM6 14H18V2H6V14Z" fill="#8399BA"/>
</svg>
